<svg width="20" height="20" viewBox="0 0 16 15" fill="none" xmlns="http://www.w3.org/2000/svg">
<path d="M13.472 0H4.02608C2.85129 0.00173175 1.89934 0.953681 1.89761 2.12847V10.7557C0.729033 10.8833 -0.114839 11.9341 0.0127591 13.1027C0.13099 14.1855 1.04763 15.0043 2.1369 15.0001H9.83215C11.0069 14.9983 11.9589 14.0464 11.9606 12.8716V4.25695H13.472C14.6475 4.25695 15.6004 3.30402 15.6004 2.12847C15.6004 0.952933 14.6475 0 13.472 0ZM8.32396 14.3703H2.1369C1.3083 14.3703 0.636581 13.6986 0.636581 12.87C0.636581 12.0414 1.3083 11.3697 2.1369 11.3697H8.32396C7.49729 12.1991 7.49729 13.5409 8.32396 14.3703ZM11.3341 2.12836V12.8716C11.3341 13.6993 10.663 14.3703 9.8353 14.3703C9.00757 14.3703 8.33656 13.6993 8.33656 12.8716C8.33656 12.0439 9.00757 11.3729 9.8353 11.3729C10.0092 11.3729 10.1502 11.2319 10.1502 11.058C10.1502 10.8841 10.0092 10.7431 9.8353 10.7431H2.53993V2.12847C2.54162 1.30633 3.20397 0.638345 4.02608 0.629726H11.9512C11.5553 1.02795 11.3334 1.56684 11.3341 2.12836ZM13.1571 3.62722H11.9638V3.11085H13.1571V3.62722ZM13.7868 3.59574V3.59259V2.79598C13.7868 2.6221 13.6459 2.48112 13.472 2.48112H11.9638V2.12847C11.966 1.30074 12.6388 0.631537 13.4665 0.633741C14.2943 0.635945 14.9635 1.30877 14.9613 2.1365C14.9594 2.83778 14.4715 3.44397 13.7868 3.59574Z" fill="#67BA30"/>
<path d="M9.18669 3.12341H4.58024C4.40636 3.12341 4.26538 3.26439 4.26538 3.43828C4.26538 3.61216 4.40636 3.75315 4.58024 3.75315H9.18669C9.36058 3.75315 9.50156 3.61216 9.50156 3.43828C9.50156 3.26439 9.36058 3.12341 9.18669 3.12341Z" fill="#67BA30"/>
<path d="M9.18669 5.37158H4.58024C4.40636 5.37158 4.26538 5.51256 4.26538 5.68645C4.26538 5.86033 4.40636 6.00131 4.58024 6.00131H9.18669C9.36058 6.00131 9.50156 5.86033 9.50156 5.68645C9.50156 5.51256 9.36058 5.37158 9.18669 5.37158Z" fill="#67BA30"/>
<path d="M9.18669 7.61963H4.58024C4.40636 7.61963 4.26538 7.76061 4.26538 7.9345C4.26538 8.10838 4.40636 8.24937 4.58024 8.24937H9.18669C9.36058 8.24937 9.50156 8.10838 9.50156 7.9345C9.50156 7.76061 9.36058 7.61963 9.18669 7.61963Z" fill="#67BA30"/>
</svg>
